<mxfile host="app.diagrams.net" agent="Mozilla/5.0 (Windows NT 10.0; Win64; x64) AppleWebKit/537.36 (KHTML, like Gecko) Chrome/139.0.0.0 Safari/537.36" version="28.1.0">
  <diagram id="Qag0GJBYdByks3d9hgRD" name="第 1 页">
    <mxGraphModel dx="1691" dy="1336" grid="1" gridSize="10" guides="1" tooltips="1" connect="1" arrows="0" fold="1" page="1" pageScale="1" pageWidth="1169" pageHeight="827" math="0" shadow="0">
      <root>
        <mxCell id="0" />
        <mxCell id="1" parent="0" />
        <mxCell id="PIRXfs8mlD8giTvvL0p3-56" value="Tools" style="whiteSpace=wrap;strokeWidth=1;fontSize=14;fontStyle=3;dashed=1;verticalAlign=top;align=center;dashPattern=12 12;perimeterSpacing=0;opacity=20;rounded=1;fillColor=#e1d5e7;strokeColor=#9673a6;fontColor=light-dark(#8d8d8d, #ededed);" vertex="1" parent="1">
          <mxGeometry x="970" y="120" width="370" height="740" as="geometry" />
        </mxCell>
        <mxCell id="PIRXfs8mlD8giTvvL0p3-55" value="Security Detection" style="whiteSpace=wrap;strokeWidth=1;fontSize=14;fontStyle=3;dashed=1;verticalAlign=top;align=center;dashPattern=12 12;perimeterSpacing=0;opacity=20;rounded=1;fontColor=light-dark(#8d8d8d, #ededed);" vertex="1" parent="1">
          <mxGeometry x="800" y="120" width="160" height="740" as="geometry" />
        </mxCell>
        <mxCell id="PIRXfs8mlD8giTvvL0p3-54" value="Application" style="whiteSpace=wrap;strokeWidth=1;fontSize=14;fontStyle=3;fillColor=#d5e8d4;dashed=1;verticalAlign=top;align=center;dashPattern=12 12;perimeterSpacing=0;opacity=30;rounded=1;strokeColor=#82b366;fontColor=#8D8D8D;" vertex="1" parent="1">
          <mxGeometry x="610" y="120" width="140" height="740" as="geometry" />
        </mxCell>
        <mxCell id="2" value="Software" style="whiteSpace=wrap;strokeWidth=2;fontSize=27;fontStyle=3" parent="1" vertex="1">
          <mxGeometry x="77" y="473" width="144" height="54" as="geometry" />
        </mxCell>
        <mxCell id="2rpSitwcuH7qXaecnPnE-29" value="" style="strokeWidth=2;html=1;shape=mxgraph.flowchart.annotation_2;align=left;labelPosition=right;pointerEvents=1;" parent="1" vertex="1">
          <mxGeometry x="220" y="220" width="64" height="560" as="geometry" />
        </mxCell>
        <mxCell id="2rpSitwcuH7qXaecnPnE-34" value="MCU" style="whiteSpace=wrap;strokeWidth=2;fontSize=14;fontStyle=1" parent="1" vertex="1">
          <mxGeometry x="284" y="200" width="86" height="54" as="geometry" />
        </mxCell>
        <mxCell id="2rpSitwcuH7qXaecnPnE-39" value="" style="edgeStyle=orthogonalEdgeStyle;rounded=0;orthogonalLoop=1;jettySize=auto;html=1;entryX=0;entryY=0.5;entryDx=0;entryDy=0;endArrow=none;endFill=0;" parent="1" source="2rpSitwcuH7qXaecnPnE-35" target="zLF7GcC5yLLB5WkDSr8T-58" edge="1">
          <mxGeometry relative="1" as="geometry">
            <mxPoint x="440" y="731" as="targetPoint" />
            <Array as="points">
              <mxPoint x="400" y="777" />
              <mxPoint x="400" y="737" />
            </Array>
          </mxGeometry>
        </mxCell>
        <mxCell id="2rpSitwcuH7qXaecnPnE-35" value="Offboard" style="whiteSpace=wrap;strokeWidth=2;fontSize=14;fontStyle=1" parent="1" vertex="1">
          <mxGeometry x="284" y="750" width="86" height="54" as="geometry" />
        </mxCell>
        <mxCell id="2rpSitwcuH7qXaecnPnE-40" value="SoC (HPC)" style="whiteSpace=wrap;strokeWidth=2;fontSize=14;fontStyle=1" parent="1" vertex="1">
          <mxGeometry x="284" y="472" width="86" height="54" as="geometry" />
        </mxCell>
        <mxCell id="2rpSitwcuH7qXaecnPnE-44" value="&lt;div style=&quot;font-size: 14px; font-weight: normal;&quot;&gt;&lt;p&gt;CVE&lt;/p&gt;&lt;/div&gt;&lt;span style=&quot;white-space-collapse: preserve;&quot;&gt;&lt;/span&gt;" style="whiteSpace=wrap;html=1;fontSize=13;strokeWidth=2;fontStyle=1;fontColor=#ffffff;fillColor=#a20025;strokeColor=#6F0000;" parent="1" vertex="1">
          <mxGeometry x="1403" y="431.5" width="80" height="45" as="geometry" />
        </mxCell>
        <mxCell id="zLF7GcC5yLLB5WkDSr8T-34" value="Platform" style="whiteSpace=wrap;strokeWidth=1;fontSize=14;fontStyle=3;fillColor=#f5f5f5;dashed=1;verticalAlign=top;align=center;dashPattern=12 12;fontColor=light-dark(#8d8d8d, #c1c1c1);strokeColor=#666666;opacity=40;rounded=1;" parent="1" vertex="1">
          <mxGeometry x="272" y="120" width="298" height="740" as="geometry" />
        </mxCell>
        <mxCell id="zLF7GcC5yLLB5WkDSr8T-36" value="Linux/QNX" style="whiteSpace=wrap;strokeWidth=2;fontSize=14;fontStyle=1" parent="1" vertex="1">
          <mxGeometry x="456" y="400" width="90" height="54" as="geometry" />
        </mxCell>
        <mxCell id="zLF7GcC5yLLB5WkDSr8T-37" value="Android" style="whiteSpace=wrap;strokeWidth=2;fontSize=14;fontStyle=1" parent="1" vertex="1">
          <mxGeometry x="456" y="570" width="90" height="54" as="geometry" />
        </mxCell>
        <mxCell id="zLF7GcC5yLLB5WkDSr8T-38" value="MCU RTOS" style="whiteSpace=wrap;strokeWidth=2;fontSize=14;fontStyle=1" parent="1" vertex="1">
          <mxGeometry x="455" y="207" width="90" height="40" as="geometry" />
        </mxCell>
        <mxCell id="zLF7GcC5yLLB5WkDSr8T-42" value="" style="ellipse;whiteSpace=wrap;html=1;align=center;aspect=fixed;fillColor=none;strokeColor=none;resizable=0;perimeter=centerPerimeter;rotatable=0;allowArrows=0;points=[];outlineConnect=1;" parent="1" vertex="1">
          <mxGeometry x="586" y="514" width="10" height="10" as="geometry" />
        </mxCell>
        <mxCell id="zLF7GcC5yLLB5WkDSr8T-44" value="ELF &#xa;(*.exe, *.o, *.so)" style="whiteSpace=wrap;strokeWidth=2;fontSize=14;fontStyle=1;strokeColor=none;points=[[0,0,0,0,0],[0,0.5,0,0,0],[0,1,0,0,0],[0.25,0,0,0,0],[0.25,1,0,0,0],[0.5,0,0,0,0],[0.5,1,0,0,0],[0.75,0,0,0,0],[0.75,1,0,0,0],[1,0,0,0,0],[1,0.5,0,0,0],[1,1,0,0,0]];fillColor=none;" parent="1" vertex="1">
          <mxGeometry x="623" y="354" width="124" height="30" as="geometry" />
        </mxCell>
        <mxCell id="zLF7GcC5yLLB5WkDSr8T-50" value="" style="endArrow=none;html=1;rounded=0;exitX=1;exitY=0.5;exitDx=0;exitDy=0;entryX=0;entryY=0.5;entryDx=0;entryDy=0;endFill=0;edgeStyle=orthogonalEdgeStyle;" parent="1" source="zLF7GcC5yLLB5WkDSr8T-36" target="zLF7GcC5yLLB5WkDSr8T-44" edge="1">
          <mxGeometry width="50" height="50" relative="1" as="geometry">
            <mxPoint x="650" y="500" as="sourcePoint" />
            <mxPoint x="700" y="450" as="targetPoint" />
            <Array as="points">
              <mxPoint x="580" y="427" />
              <mxPoint x="580" y="369" />
            </Array>
          </mxGeometry>
        </mxCell>
        <mxCell id="zLF7GcC5yLLB5WkDSr8T-51" value="System Services" style="whiteSpace=wrap;strokeWidth=2;fontSize=14;fontStyle=1;strokeColor=none;points=[[0,0,0,0,0],[0,0.5,0,0,0],[0,1,0,0,0],[0.25,0,0,0,0],[0.25,1,0,0,0],[0.5,0,0,0,0],[0.5,1,0,0,0],[0.75,0,0,0,0],[0.75,1,0,0,0],[1,0,0,0,0],[1,0.5,0,0,0],[1,1,0,0,0]];fillColor=none;" parent="1" vertex="1">
          <mxGeometry x="622.5" y="412" width="121" height="30" as="geometry" />
        </mxCell>
        <mxCell id="zLF7GcC5yLLB5WkDSr8T-52" value="" style="endArrow=none;html=1;rounded=0;exitX=1;exitY=0.5;exitDx=0;exitDy=0;entryX=0;entryY=0.5;entryDx=0;entryDy=0;entryPerimeter=0;endFill=0;" parent="1" source="zLF7GcC5yLLB5WkDSr8T-36" target="zLF7GcC5yLLB5WkDSr8T-51" edge="1">
          <mxGeometry width="50" height="50" relative="1" as="geometry">
            <mxPoint x="590" y="520" as="sourcePoint" />
            <mxPoint x="690" y="450" as="targetPoint" />
          </mxGeometry>
        </mxCell>
        <mxCell id="zLF7GcC5yLLB5WkDSr8T-53" value="System Kernel" style="whiteSpace=wrap;strokeWidth=2;fontSize=14;fontStyle=1;strokeColor=none;points=[[0,0,0,0,0],[0,0.5,0,0,0],[0,1,0,0,0],[0.25,0,0,0,0],[0.25,1,0,0,0],[0.5,0,0,0,0],[0.5,1,0,0,0],[0.75,0,0,0,0],[0.75,1,0,0,0],[1,0,0,0,0],[1,0.5,0,0,0],[1,1,0,0,0]];fillColor=none;" parent="1" vertex="1">
          <mxGeometry x="623" y="472" width="121" height="30" as="geometry" />
        </mxCell>
        <mxCell id="zLF7GcC5yLLB5WkDSr8T-54" value="" style="endArrow=none;html=1;rounded=0;exitX=1;exitY=0.5;exitDx=0;exitDy=0;entryX=0;entryY=0.5;entryDx=0;entryDy=0;entryPerimeter=0;endFill=0;edgeStyle=orthogonalEdgeStyle;" parent="1" source="zLF7GcC5yLLB5WkDSr8T-36" target="zLF7GcC5yLLB5WkDSr8T-53" edge="1">
          <mxGeometry width="50" height="50" relative="1" as="geometry">
            <mxPoint x="590" y="490" as="sourcePoint" />
            <mxPoint x="690" y="490" as="targetPoint" />
            <Array as="points">
              <mxPoint x="580" y="427" />
              <mxPoint x="580" y="487" />
            </Array>
          </mxGeometry>
        </mxCell>
        <mxCell id="zLF7GcC5yLLB5WkDSr8T-55" value="" style="curved=1;endArrow=none;html=1;rounded=0;exitX=1;exitY=0.5;exitDx=0;exitDy=0;entryX=0;entryY=0.5;entryDx=0;entryDy=0;endFill=0;" parent="1" source="2rpSitwcuH7qXaecnPnE-34" target="zLF7GcC5yLLB5WkDSr8T-38" edge="1">
          <mxGeometry width="50" height="50" relative="1" as="geometry">
            <mxPoint x="400" y="320" as="sourcePoint" />
            <mxPoint x="486" y="260" as="targetPoint" />
            <Array as="points" />
          </mxGeometry>
        </mxCell>
        <mxCell id="zLF7GcC5yLLB5WkDSr8T-56" value="" style="endArrow=none;html=1;rounded=0;exitX=1;exitY=0.5;exitDx=0;exitDy=0;entryX=0;entryY=0.5;entryDx=0;entryDy=0;endFill=0;entryPerimeter=0;edgeStyle=orthogonalEdgeStyle;" parent="1" source="zLF7GcC5yLLB5WkDSr8T-38" target="zLF7GcC5yLLB5WkDSr8T-72" edge="1">
          <mxGeometry width="50" height="50" relative="1" as="geometry">
            <mxPoint x="570" y="340" as="sourcePoint" />
            <mxPoint x="638" y="227" as="targetPoint" />
            <Array as="points">
              <mxPoint x="580" y="227" />
              <mxPoint x="580" y="269" />
            </Array>
          </mxGeometry>
        </mxCell>
        <mxCell id="zLF7GcC5yLLB5WkDSr8T-57" value="Apk" style="whiteSpace=wrap;strokeWidth=2;fontSize=14;fontStyle=1;strokeColor=none;points=[[0,0,0,0,0],[0,0.5,0,0,0],[0,1,0,0,0],[0.25,0,0,0,0],[0.25,1,0,0,0],[0.5,0,0,0,0],[0.5,1,0,0,0],[0.75,0,0,0,0],[0.75,1,0,0,0],[1,0,0,0,0],[1,0.5,0,0,0],[1,1,0,0,0]];fillColor=none;" parent="1" vertex="1">
          <mxGeometry x="622.5" y="641" width="120" height="30" as="geometry" />
        </mxCell>
        <mxCell id="zLF7GcC5yLLB5WkDSr8T-58" value="Android/IOS" style="whiteSpace=wrap;strokeWidth=2;fontSize=14;fontStyle=1" parent="1" vertex="1">
          <mxGeometry x="455" y="710" width="90" height="54" as="geometry" />
        </mxCell>
        <mxCell id="zLF7GcC5yLLB5WkDSr8T-59" value="Cloud" style="whiteSpace=wrap;strokeWidth=2;fontSize=14;fontStyle=1" parent="1" vertex="1">
          <mxGeometry x="455" y="793" width="90" height="54" as="geometry" />
        </mxCell>
        <mxCell id="zLF7GcC5yLLB5WkDSr8T-62" value="" style="edgeStyle=orthogonalEdgeStyle;rounded=0;orthogonalLoop=1;jettySize=auto;html=1;exitX=1;exitY=0.5;exitDx=0;exitDy=0;entryX=0;entryY=0.5;entryDx=0;entryDy=0;endArrow=none;endFill=0;" parent="1" source="2rpSitwcuH7qXaecnPnE-35" target="zLF7GcC5yLLB5WkDSr8T-59" edge="1">
          <mxGeometry relative="1" as="geometry">
            <mxPoint x="400" y="810" as="sourcePoint" />
            <mxPoint x="450" y="820" as="targetPoint" />
            <Array as="points">
              <mxPoint x="400" y="777" />
              <mxPoint x="400" y="820" />
              <mxPoint x="450" y="820" />
            </Array>
          </mxGeometry>
        </mxCell>
        <mxCell id="zLF7GcC5yLLB5WkDSr8T-63" value="" style="edgeStyle=orthogonalEdgeStyle;rounded=0;orthogonalLoop=1;jettySize=auto;html=1;exitX=1;exitY=0.5;exitDx=0;exitDy=0;entryX=0;entryY=0.5;entryDx=0;entryDy=0;endArrow=none;endFill=0;" parent="1" source="2rpSitwcuH7qXaecnPnE-40" target="zLF7GcC5yLLB5WkDSr8T-36" edge="1">
          <mxGeometry relative="1" as="geometry">
            <mxPoint x="371" y="498.5" as="sourcePoint" />
            <mxPoint x="450" y="440" as="targetPoint" />
            <Array as="points">
              <mxPoint x="400" y="499" />
              <mxPoint x="400" y="427" />
            </Array>
          </mxGeometry>
        </mxCell>
        <mxCell id="zLF7GcC5yLLB5WkDSr8T-64" value="" style="edgeStyle=orthogonalEdgeStyle;rounded=0;orthogonalLoop=1;jettySize=auto;html=1;entryX=0;entryY=0.5;entryDx=0;entryDy=0;exitX=1;exitY=0.5;exitDx=0;exitDy=0;endArrow=none;endFill=0;" parent="1" source="2rpSitwcuH7qXaecnPnE-40" target="zLF7GcC5yLLB5WkDSr8T-37" edge="1">
          <mxGeometry relative="1" as="geometry">
            <mxPoint x="370" y="499" as="sourcePoint" />
            <mxPoint x="456" y="541.5" as="targetPoint" />
            <Array as="points">
              <mxPoint x="400" y="499" />
              <mxPoint x="400" y="590" />
              <mxPoint x="456" y="590" />
            </Array>
          </mxGeometry>
        </mxCell>
        <mxCell id="zLF7GcC5yLLB5WkDSr8T-65" value="Code Review" style="whiteSpace=wrap;strokeWidth=2;fontSize=14;fontStyle=1;strokeColor=#00FF00;points=[[0,0,0,0,0],[0,0.5,0,0,0],[0,1,0,0,0],[0.25,0,0,0,0],[0.25,1,0,0,0],[0.5,0,0,0,0],[0.5,1,0,0,0],[0.75,0,0,0,0],[0.75,1,0,0,0],[1,0,0,0,0],[1,0.5,0,0,0],[1,1,0,0,0]];dashed=1;dashPattern=1 1;glass=0;rounded=1;" parent="1" vertex="1">
          <mxGeometry x="810" y="170" width="140" height="30" as="geometry" />
        </mxCell>
        <mxCell id="zLF7GcC5yLLB5WkDSr8T-67" value="Service Vul Scan" style="whiteSpace=wrap;strokeWidth=2;fontSize=14;fontStyle=1;strokeColor=default;points=[[0,0,0,0,0],[0,0.5,0,0,0],[0,1,0,0,0],[0.25,0,0,0,0],[0.25,1,0,0,0],[0.5,0,0,0,0],[0.5,1,0,0,0],[0.75,0,0,0,0],[0.75,1,0,0,0],[1,0,0,0,0],[1,0.5,0,0,0],[1,1,0,0,0]];dashed=1;dashPattern=1 2;rounded=1;" parent="1" vertex="1">
          <mxGeometry x="810" y="472" width="140" height="30" as="geometry" />
        </mxCell>
        <mxCell id="zLF7GcC5yLLB5WkDSr8T-68" value="" style="edgeStyle=orthogonalEdgeStyle;rounded=0;orthogonalLoop=1;jettySize=auto;html=1;entryX=0;entryY=0.5;entryDx=0;entryDy=0;endArrow=none;endFill=0;exitX=1;exitY=0.5;exitDx=0;exitDy=0;entryPerimeter=0;" parent="1" source="zLF7GcC5yLLB5WkDSr8T-37" target="zLF7GcC5yLLB5WkDSr8T-70" edge="1">
          <mxGeometry relative="1" as="geometry">
            <mxPoint x="553" y="590" as="sourcePoint" />
            <mxPoint x="638" y="550" as="targetPoint" />
            <Array as="points">
              <mxPoint x="580" y="614" />
              <mxPoint x="580" y="572" />
            </Array>
          </mxGeometry>
        </mxCell>
        <mxCell id="zLF7GcC5yLLB5WkDSr8T-69" value="" style="edgeStyle=orthogonalEdgeStyle;rounded=0;orthogonalLoop=1;jettySize=auto;html=1;exitX=1;exitY=0.5;exitDx=0;exitDy=0;entryX=0;entryY=0.5;entryDx=0;entryDy=0;endArrow=none;endFill=0;entryPerimeter=0;" parent="1" source="zLF7GcC5yLLB5WkDSr8T-37" target="zLF7GcC5yLLB5WkDSr8T-57" edge="1">
          <mxGeometry relative="1" as="geometry">
            <mxPoint x="553" y="590" as="sourcePoint" />
            <mxPoint x="638" y="633" as="targetPoint" />
            <Array as="points">
              <mxPoint x="580" y="614" />
              <mxPoint x="580" y="656" />
            </Array>
          </mxGeometry>
        </mxCell>
        <mxCell id="zLF7GcC5yLLB5WkDSr8T-70" value="Android Kernel" style="whiteSpace=wrap;strokeWidth=2;fontSize=14;fontStyle=1;strokeColor=none;points=[[0,0,0,0,0],[0,0.5,0,0,0],[0,1,0,0,0],[0.25,0,0,0,0],[0.25,1,0,0,0],[0.5,0,0,0,0],[0.5,1,0,0,0],[0.75,0,0,0,0],[0.75,1,0,0,0],[1,0,0,0,0],[1,0.5,0,0,0],[1,1,0,0,0]];fillColor=none;" parent="1" vertex="1">
          <mxGeometry x="622.5" y="557" width="120" height="30" as="geometry" />
        </mxCell>
        <mxCell id="zLF7GcC5yLLB5WkDSr8T-71" value="" style="edgeStyle=orthogonalEdgeStyle;rounded=0;orthogonalLoop=1;jettySize=auto;html=1;exitX=1;exitY=0.5;exitDx=0;exitDy=0;endArrow=none;endFill=0;entryX=0;entryY=0.5;entryDx=0;entryDy=0;entryPerimeter=0;" parent="1" source="zLF7GcC5yLLB5WkDSr8T-58" target="zLF7GcC5yLLB5WkDSr8T-57" edge="1">
          <mxGeometry relative="1" as="geometry">
            <mxPoint x="620" y="720" as="sourcePoint" />
            <mxPoint x="620" y="660" as="targetPoint" />
            <Array as="points">
              <mxPoint x="580" y="737" />
              <mxPoint x="580" y="656" />
            </Array>
          </mxGeometry>
        </mxCell>
        <mxCell id="zLF7GcC5yLLB5WkDSr8T-72" value="Firmware&#xa;(Hex)" style="whiteSpace=wrap;strokeWidth=2;fontSize=14;fontStyle=1;strokeColor=none;points=[[0,0,0,0,0],[0,0.5,0,0,0],[0,1,0,0,0],[0.25,0,0,0,0],[0.25,1,0,0,0],[0.5,0,0,0,0],[0.5,1,0,0,0],[0.75,0,0,0,0],[0.75,1,0,0,0],[1,0,0,0,0],[1,0.5,0,0,0],[1,1,0,0,0]];fillColor=none;" parent="1" vertex="1">
          <mxGeometry x="623" y="254" width="124" height="30" as="geometry" />
        </mxCell>
        <mxCell id="zLF7GcC5yLLB5WkDSr8T-73" value="Tools: Helix QAC, SonarQube..." style="whiteSpace=wrap;strokeWidth=1;fontSize=14;fontStyle=1;strokeColor=#82b366;points=[[0,0,0,0,0],[0,0.5,0,0,0],[0,1,0,0,0],[0.25,0,0,0,0],[0.25,1,0,0,0],[0.5,0,0,0,0],[0.5,1,0,0,0],[0.75,0,0,0,0],[0.75,1,0,0,0],[1,0,0,0,0],[1,0.5,0,0,0],[1,1,0,0,0]];align=left;fillColor=#d5e8d4;" parent="1" vertex="1">
          <mxGeometry x="990" y="150" width="240" height="30" as="geometry" />
        </mxCell>
        <mxCell id="zLF7GcC5yLLB5WkDSr8T-74" value="Standards: MISRA C, CERT C, CWE Top25..." style="whiteSpace=wrap;strokeWidth=1;fontSize=14;fontStyle=1;strokeColor=#d79b00;points=[[0,0,0,0,0],[0,0.5,0,0,0],[0,1,0,0,0],[0.25,0,0,0,0],[0.25,1,0,0,0],[0.5,0,0,0,0],[0.5,1,0,0,0],[0.75,0,0,0,0],[0.75,1,0,0,0],[1,0,0,0,0],[1,0.5,0,0,0],[1,1,0,0,0]];align=left;fillColor=#ffe6cc;" parent="1" vertex="1">
          <mxGeometry x="990" y="190" width="300" height="30" as="geometry" />
        </mxCell>
        <mxCell id="PIRXfs8mlD8giTvvL0p3-28" value="Binary Scan" style="whiteSpace=wrap;strokeWidth=2;fontSize=14;fontStyle=1;strokeColor=#FF66FF;points=[[0,0,0,0,0],[0,0.5,0,0,0],[0,1,0,0,0],[0.25,0,0,0,0],[0.25,1,0,0,0],[0.5,0,0,0,0],[0.5,1,0,0,0],[0.75,0,0,0,0],[0.75,1,0,0,0],[1,0,0,0,0],[1,0.5,0,0,0],[1,1,0,0,0]];dashed=1;dashPattern=1 4;rounded=1;" vertex="1" parent="1">
          <mxGeometry x="810" y="300" width="140" height="30" as="geometry" />
        </mxCell>
        <mxCell id="PIRXfs8mlD8giTvvL0p3-29" value="Raw Code" style="whiteSpace=wrap;strokeWidth=2;fontSize=14;fontStyle=1;strokeColor=none;points=[[0,0,0,0,0],[0,0.5,0,0,0],[0,1,0,0,0],[0.25,0,0,0,0],[0.25,1,0,0,0],[0.5,0,0,0,0],[0.5,1,0,0,0],[0.75,0,0,0,0],[0.75,1,0,0,0],[1,0,0,0,0],[1,0.5,0,0,0],[1,1,0,0,0]];fillColor=none;" vertex="1" parent="1">
          <mxGeometry x="620.5" y="170" width="124" height="30" as="geometry" />
        </mxCell>
        <mxCell id="PIRXfs8mlD8giTvvL0p3-30" value="" style="endArrow=none;html=1;rounded=0;exitX=1;exitY=0.5;exitDx=0;exitDy=0;entryX=0;entryY=0.5;entryDx=0;entryDy=0;endFill=0;entryPerimeter=0;edgeStyle=orthogonalEdgeStyle;" edge="1" parent="1" source="zLF7GcC5yLLB5WkDSr8T-38" target="PIRXfs8mlD8giTvvL0p3-29">
          <mxGeometry width="50" height="50" relative="1" as="geometry">
            <mxPoint x="490" y="300" as="sourcePoint" />
            <mxPoint x="543" y="342" as="targetPoint" />
            <Array as="points">
              <mxPoint x="580" y="227" />
              <mxPoint x="580" y="185" />
            </Array>
          </mxGeometry>
        </mxCell>
        <mxCell id="PIRXfs8mlD8giTvvL0p3-31" value="" style="endArrow=none;html=1;rounded=0;exitX=1;exitY=0.5;exitDx=0;exitDy=0;exitPerimeter=0;entryX=0;entryY=0.5;entryDx=0;entryDy=0;entryPerimeter=0;" edge="1" parent="1" source="PIRXfs8mlD8giTvvL0p3-29" target="zLF7GcC5yLLB5WkDSr8T-65">
          <mxGeometry width="50" height="50" relative="1" as="geometry">
            <mxPoint x="780" y="270" as="sourcePoint" />
            <mxPoint x="830" y="220" as="targetPoint" />
          </mxGeometry>
        </mxCell>
        <mxCell id="PIRXfs8mlD8giTvvL0p3-32" value="" style="endArrow=none;html=1;rounded=0;exitX=0.505;exitY=0.5;exitDx=0;exitDy=0;exitPerimeter=0;entryX=1;entryY=0.5;entryDx=0;entryDy=0;entryPerimeter=0;strokeWidth=2;" edge="1" parent="1" source="2rpSitwcuH7qXaecnPnE-29" target="2rpSitwcuH7qXaecnPnE-29">
          <mxGeometry width="50" height="50" relative="1" as="geometry">
            <mxPoint x="284" y="577" as="sourcePoint" />
            <mxPoint x="334" y="527" as="targetPoint" />
          </mxGeometry>
        </mxCell>
        <mxCell id="PIRXfs8mlD8giTvvL0p3-33" value="" style="endArrow=none;html=1;rounded=0;exitX=1;exitY=0.5;exitDx=0;exitDy=0;exitPerimeter=0;entryX=0;entryY=0.5;entryDx=0;entryDy=0;entryPerimeter=0;" edge="1" parent="1" source="zLF7GcC5yLLB5WkDSr8T-72" target="PIRXfs8mlD8giTvvL0p3-28">
          <mxGeometry width="50" height="50" relative="1" as="geometry">
            <mxPoint x="760" y="340" as="sourcePoint" />
            <mxPoint x="810" y="290" as="targetPoint" />
          </mxGeometry>
        </mxCell>
        <mxCell id="PIRXfs8mlD8giTvvL0p3-34" value="" style="endArrow=none;html=1;rounded=0;exitX=1;exitY=0.5;exitDx=0;exitDy=0;exitPerimeter=0;entryX=0;entryY=0.5;entryDx=0;entryDy=0;entryPerimeter=0;" edge="1" parent="1" source="zLF7GcC5yLLB5WkDSr8T-51" target="zLF7GcC5yLLB5WkDSr8T-67">
          <mxGeometry width="50" height="50" relative="1" as="geometry">
            <mxPoint x="760" y="454" as="sourcePoint" />
            <mxPoint x="810" y="404" as="targetPoint" />
          </mxGeometry>
        </mxCell>
        <mxCell id="PIRXfs8mlD8giTvvL0p3-35" value="" style="endArrow=none;html=1;rounded=0;exitX=1;exitY=0.5;exitDx=0;exitDy=0;exitPerimeter=0;entryX=0;entryY=0.5;entryDx=0;entryDy=0;entryPerimeter=0;" edge="1" parent="1" source="zLF7GcC5yLLB5WkDSr8T-53" target="zLF7GcC5yLLB5WkDSr8T-67">
          <mxGeometry width="50" height="50" relative="1" as="geometry">
            <mxPoint x="1070" y="490" as="sourcePoint" />
            <mxPoint x="1120" y="440" as="targetPoint" />
          </mxGeometry>
        </mxCell>
        <mxCell id="PIRXfs8mlD8giTvvL0p3-36" value="" style="endArrow=none;html=1;rounded=0;exitX=1;exitY=0.5;exitDx=0;exitDy=0;exitPerimeter=0;entryX=0;entryY=0.5;entryDx=0;entryDy=0;entryPerimeter=0;" edge="1" parent="1" source="zLF7GcC5yLLB5WkDSr8T-44" target="PIRXfs8mlD8giTvvL0p3-28">
          <mxGeometry width="50" height="50" relative="1" as="geometry">
            <mxPoint x="940" y="430" as="sourcePoint" />
            <mxPoint x="990" y="380" as="targetPoint" />
          </mxGeometry>
        </mxCell>
        <mxCell id="PIRXfs8mlD8giTvvL0p3-37" value="" style="endArrow=none;html=1;rounded=0;exitX=1;exitY=0.5;exitDx=0;exitDy=0;exitPerimeter=0;entryX=0;entryY=0.5;entryDx=0;entryDy=0;entryPerimeter=0;" edge="1" parent="1" source="zLF7GcC5yLLB5WkDSr8T-70" target="zLF7GcC5yLLB5WkDSr8T-67">
          <mxGeometry width="50" height="50" relative="1" as="geometry">
            <mxPoint x="810" y="570" as="sourcePoint" />
            <mxPoint x="876" y="600" as="targetPoint" />
          </mxGeometry>
        </mxCell>
        <mxCell id="PIRXfs8mlD8giTvvL0p3-39" value="Tenable: Nessus" style="whiteSpace=wrap;strokeWidth=1;fontSize=14;fontStyle=1;strokeColor=#82b366;points=[[0,0,0,0,0],[0,0.5,0,0,0],[0,1,0,0,0],[0.25,0,0,0,0],[0.25,1,0,0,0],[0.5,0,0,0,0],[0.5,1,0,0,0],[0.75,0,0,0,0],[0.75,1,0,0,0],[1,0,0,0,0],[1,0.5,0,0,0],[1,1,0,0,0]];align=left;fillColor=#d5e8d4;" vertex="1" parent="1">
          <mxGeometry x="990" y="440" width="120" height="30" as="geometry" />
        </mxCell>
        <mxCell id="PIRXfs8mlD8giTvvL0p3-40" value="Nmap" style="whiteSpace=wrap;strokeWidth=1;fontSize=14;fontStyle=1;strokeColor=#82b366;points=[[0,0,0,0,0],[0,0.5,0,0,0],[0,1,0,0,0],[0.25,0,0,0,0],[0.25,1,0,0,0],[0.5,0,0,0,0],[0.5,1,0,0,0],[0.75,0,0,0,0],[0.75,1,0,0,0],[1,0,0,0,0],[1,0.5,0,0,0],[1,1,0,0,0]];align=left;fillColor=#d5e8d4;" vertex="1" parent="1">
          <mxGeometry x="990" y="502" width="70" height="30" as="geometry" />
        </mxCell>
        <mxCell id="PIRXfs8mlD8giTvvL0p3-41" value="" style="shape=curlyBracket;whiteSpace=wrap;html=1;rounded=1;labelPosition=left;verticalLabelPosition=middle;align=right;verticalAlign=middle;" vertex="1" parent="1">
          <mxGeometry x="950" y="427" width="40" height="120" as="geometry" />
        </mxCell>
        <mxCell id="PIRXfs8mlD8giTvvL0p3-42" value="" style="shape=curlyBracket;whiteSpace=wrap;html=1;rounded=1;labelPosition=left;verticalLabelPosition=middle;align=right;verticalAlign=middle;size=0.5;" vertex="1" parent="1">
          <mxGeometry x="950" y="255" width="40" height="145" as="geometry" />
        </mxCell>
        <mxCell id="PIRXfs8mlD8giTvvL0p3-43" value="Black Duck, Veracode, Cybellum, Karamba VCode" style="whiteSpace=wrap;strokeWidth=1;fontSize=14;fontStyle=1;strokeColor=#82b366;points=[[0,0,0,0,0],[0,0.5,0,0,0],[0,1,0,0,0],[0.25,0,0,0,0],[0.25,1,0,0,0],[0.5,0,0,0,0],[0.5,1,0,0,0],[0.75,0,0,0,0],[0.75,1,0,0,0],[1,0,0,0,0],[1,0.5,0,0,0],[1,1,0,0,0]];align=left;fillColor=#d5e8d4;" vertex="1" parent="1">
          <mxGeometry x="990" y="260" width="340" height="30" as="geometry" />
        </mxCell>
        <mxCell id="PIRXfs8mlD8giTvvL0p3-44" value="" style="shape=curlyBracket;whiteSpace=wrap;html=1;rounded=1;labelPosition=left;verticalLabelPosition=middle;align=right;verticalAlign=middle;" vertex="1" parent="1">
          <mxGeometry x="950" y="140" width="40" height="90" as="geometry" />
        </mxCell>
        <mxCell id="PIRXfs8mlD8giTvvL0p3-45" value="Keen: SystemAuditor/BinAbsInspector" style="whiteSpace=wrap;strokeWidth=1;fontSize=14;fontStyle=1;strokeColor=#82b366;points=[[0,0,0,0,0],[0,0.5,0,0,0],[0,1,0,0,0],[0.25,0,0,0,0],[0.25,1,0,0,0],[0.5,0,0,0,0],[0.5,1,0,0,0],[0.75,0,0,0,0],[0.75,1,0,0,0],[1,0,0,0,0],[1,0.5,0,0,0],[1,1,0,0,0]];align=left;fillColor=#d5e8d4;" vertex="1" parent="1">
          <mxGeometry x="990" y="310" width="280" height="30" as="geometry" />
        </mxCell>
        <mxCell id="PIRXfs8mlD8giTvvL0p3-46" value="Others (复旦大学FirmRec, USIT, ETAS...)" style="whiteSpace=wrap;strokeWidth=1;fontSize=14;fontStyle=1;strokeColor=#82b366;points=[[0,0,0,0,0],[0,0.5,0,0,0],[0,1,0,0,0],[0.25,0,0,0,0],[0.25,1,0,0,0],[0.5,0,0,0,0],[0.5,1,0,0,0],[0.75,0,0,0,0],[0.75,1,0,0,0],[1,0,0,0,0],[1,0.5,0,0,0],[1,1,0,0,0]];align=left;fillColor=#d5e8d4;" vertex="1" parent="1">
          <mxGeometry x="990" y="360" width="300" height="30" as="geometry" />
        </mxCell>
        <mxCell id="PIRXfs8mlD8giTvvL0p3-47" value="Static Scan" style="whiteSpace=wrap;strokeWidth=2;fontSize=14;fontStyle=1;strokeColor=#FF66FF;points=[[0,0,0,0,0],[0,0.5,0,0,0],[0,1,0,0,0],[0.25,0,0,0,0],[0.25,1,0,0,0],[0.5,0,0,0,0],[0.5,1,0,0,0],[0.75,0,0,0,0],[0.75,1,0,0,0],[1,0,0,0,0],[1,0.5,0,0,0],[1,1,0,0,0]];dashed=1;dashPattern=1 4;rounded=1;" vertex="1" parent="1">
          <mxGeometry x="810" y="611" width="140" height="30" as="geometry" />
        </mxCell>
        <mxCell id="PIRXfs8mlD8giTvvL0p3-49" value="Dynamic Scan" style="whiteSpace=wrap;strokeWidth=2;fontSize=14;fontStyle=1;strokeColor=default;points=[[0,0,0,0,0],[0,0.5,0,0,0],[0,1,0,0,0],[0.25,0,0,0,0],[0.25,1,0,0,0],[0.5,0,0,0,0],[0.5,1,0,0,0],[0.75,0,0,0,0],[0.75,1,0,0,0],[1,0,0,0,0],[1,0.5,0,0,0],[1,1,0,0,0]];dashed=1;dashPattern=1 2;rounded=1;" vertex="1" parent="1">
          <mxGeometry x="810" y="671" width="140" height="30" as="geometry" />
        </mxCell>
        <mxCell id="PIRXfs8mlD8giTvvL0p3-50" style="edgeStyle=orthogonalEdgeStyle;rounded=0;orthogonalLoop=1;jettySize=auto;html=1;exitX=0.5;exitY=1;exitDx=0;exitDy=0;exitPerimeter=0;" edge="1" parent="1" source="PIRXfs8mlD8giTvvL0p3-47" target="PIRXfs8mlD8giTvvL0p3-47">
          <mxGeometry relative="1" as="geometry" />
        </mxCell>
        <mxCell id="PIRXfs8mlD8giTvvL0p3-51" value="" style="endArrow=none;html=1;rounded=0;exitX=1;exitY=0.5;exitDx=0;exitDy=0;exitPerimeter=0;entryX=0;entryY=0.5;entryDx=0;entryDy=0;entryPerimeter=0;" edge="1" parent="1" source="zLF7GcC5yLLB5WkDSr8T-57" target="PIRXfs8mlD8giTvvL0p3-47">
          <mxGeometry width="50" height="50" relative="1" as="geometry">
            <mxPoint x="750" y="715" as="sourcePoint" />
            <mxPoint x="770" y="620" as="targetPoint" />
          </mxGeometry>
        </mxCell>
        <mxCell id="PIRXfs8mlD8giTvvL0p3-52" value="" style="endArrow=none;html=1;rounded=0;exitX=1;exitY=0.5;exitDx=0;exitDy=0;exitPerimeter=0;entryX=0;entryY=0.5;entryDx=0;entryDy=0;entryPerimeter=0;" edge="1" parent="1" source="zLF7GcC5yLLB5WkDSr8T-57" target="PIRXfs8mlD8giTvvL0p3-49">
          <mxGeometry width="50" height="50" relative="1" as="geometry">
            <mxPoint x="750" y="740" as="sourcePoint" />
            <mxPoint x="817" y="710" as="targetPoint" />
          </mxGeometry>
        </mxCell>
        <mxCell id="PIRXfs8mlD8giTvvL0p3-57" value="MobSF, QARK, OWASP ZAP" style="whiteSpace=wrap;strokeWidth=1;fontSize=14;fontStyle=1;strokeColor=#82b366;points=[[0,0,0,0,0],[0,0.5,0,0,0],[0,1,0,0,0],[0.25,0,0,0,0],[0.25,1,0,0,0],[0.5,0,0,0,0],[0.5,1,0,0,0],[0.75,0,0,0,0],[0.75,1,0,0,0],[1,0,0,0,0],[1,0.5,0,0,0],[1,1,0,0,0]];align=left;fillColor=#d5e8d4;" vertex="1" parent="1">
          <mxGeometry x="990" y="611" width="200" height="30" as="geometry" />
        </mxCell>
        <mxCell id="PIRXfs8mlD8giTvvL0p3-58" value="爱加密、梆梆安全、娜迦安全" style="whiteSpace=wrap;strokeWidth=1;fontSize=14;fontStyle=1;strokeColor=#82b366;points=[[0,0,0,0,0],[0,0.5,0,0,0],[0,1,0,0,0],[0.25,0,0,0,0],[0.25,1,0,0,0],[0.5,0,0,0,0],[0.5,1,0,0,0],[0.75,0,0,0,0],[0.75,1,0,0,0],[1,0,0,0,0],[1,0.5,0,0,0],[1,1,0,0,0]];align=left;fillColor=#d5e8d4;" vertex="1" parent="1">
          <mxGeometry x="990" y="671" width="200" height="30" as="geometry" />
        </mxCell>
        <mxCell id="PIRXfs8mlD8giTvvL0p3-59" value="" style="shape=curlyBracket;whiteSpace=wrap;html=1;rounded=1;labelPosition=left;verticalLabelPosition=middle;align=right;verticalAlign=middle;" vertex="1" parent="1">
          <mxGeometry x="950" y="596" width="40" height="120" as="geometry" />
        </mxCell>
        <mxCell id="PIRXfs8mlD8giTvvL0p3-64" value="OWASP ZAP, AWVS" style="whiteSpace=wrap;strokeWidth=1;fontSize=14;fontStyle=1;strokeColor=#82b366;points=[[0,0,0,0,0],[0,0.5,0,0,0],[0,1,0,0,0],[0.25,0,0,0,0],[0.25,1,0,0,0],[0.5,0,0,0,0],[0.5,1,0,0,0],[0.75,0,0,0,0],[0.75,1,0,0,0],[1,0,0,0,0],[1,0.5,0,0,0],[1,1,0,0,0]];align=left;fillColor=#d5e8d4;" vertex="1" parent="1">
          <mxGeometry x="990" y="805" width="140" height="30" as="geometry" />
        </mxCell>
        <mxCell id="PIRXfs8mlD8giTvvL0p3-62" value="" style="endArrow=none;html=1;rounded=0;exitX=1;exitY=0.5;exitDx=0;exitDy=0;exitPerimeter=0;entryX=0;entryY=0.5;entryDx=0;entryDy=0;entryPerimeter=0;fontColor=default;" edge="1" parent="1" source="PIRXfs8mlD8giTvvL0p3-38" target="PIRXfs8mlD8giTvvL0p3-61">
          <mxGeometry width="50" height="50" relative="1" as="geometry">
            <mxPoint x="760" y="890" as="sourcePoint" />
            <mxPoint x="827" y="860" as="targetPoint" />
          </mxGeometry>
        </mxCell>
        <mxCell id="PIRXfs8mlD8giTvvL0p3-61" value="Service Vul Scan" style="whiteSpace=wrap;strokeWidth=2;fontSize=14;fontStyle=1;strokeColor=default;points=[[0,0,0,0,0],[0,0.5,0,0,0],[0,1,0,0,0],[0.25,0,0,0,0],[0.25,1,0,0,0],[0.5,0,0,0,0],[0.5,1,0,0,0],[0.75,0,0,0,0],[0.75,1,0,0,0],[1,0,0,0,0],[1,0.5,0,0,0],[1,1,0,0,0]];dashed=1;dashPattern=1 2;rounded=1;fontColor=light-dark(#696969, #ededed);" vertex="1" parent="1">
          <mxGeometry x="810" y="805" width="140" height="30" as="geometry" />
        </mxCell>
        <mxCell id="PIRXfs8mlD8giTvvL0p3-38" value="Web Service" style="whiteSpace=wrap;strokeWidth=2;fontSize=14;fontStyle=1;strokeColor=none;points=[[0,0,0,0,0],[0,0.5,0,0,0],[0,1,0,0,0],[0.25,0,0,0,0],[0.25,1,0,0,0],[0.5,0,0,0,0],[0.5,1,0,0,0],[0.75,0,0,0,0],[0.75,1,0,0,0],[1,0,0,0,0],[1,0.5,0,0,0],[1,1,0,0,0]];fillColor=none;fontColor=light-dark(#696969, #ededed);" vertex="1" parent="1">
          <mxGeometry x="623" y="805" width="124" height="30" as="geometry" />
        </mxCell>
        <mxCell id="PIRXfs8mlD8giTvvL0p3-65" value="" style="endArrow=none;html=1;rounded=0;exitX=1;exitY=0.5;exitDx=0;exitDy=0;exitPerimeter=0;entryX=0;entryY=0.5;entryDx=0;entryDy=0;entryPerimeter=0;fontColor=default;" edge="1" parent="1" source="PIRXfs8mlD8giTvvL0p3-61" target="PIRXfs8mlD8giTvvL0p3-64">
          <mxGeometry width="50" height="50" relative="1" as="geometry">
            <mxPoint x="950" y="870" as="sourcePoint" />
            <mxPoint x="1013" y="870" as="targetPoint" />
          </mxGeometry>
        </mxCell>
        <mxCell id="PIRXfs8mlD8giTvvL0p3-66" value="&lt;div style=&quot;font-size: 14px; font-weight: normal;&quot;&gt;&lt;p&gt;CWE&lt;/p&gt;&lt;/div&gt;&lt;span style=&quot;white-space-collapse: preserve;&quot;&gt;&lt;/span&gt;" style="whiteSpace=wrap;html=1;fontSize=13;strokeWidth=2;fontStyle=1;fontColor=#ffffff;fillColor=#a20025;strokeColor=#6F0000;" vertex="1" parent="1">
          <mxGeometry x="1403" y="521.5" width="80" height="45" as="geometry" />
        </mxCell>
        <mxCell id="PIRXfs8mlD8giTvvL0p3-67" value="" style="shape=curlyBracket;whiteSpace=wrap;html=1;rounded=1;flipH=1;labelPosition=right;verticalLabelPosition=middle;align=left;verticalAlign=middle;" vertex="1" parent="1">
          <mxGeometry x="1343" y="152" width="40" height="696" as="geometry" />
        </mxCell>
        <mxCell id="PIRXfs8mlD8giTvvL0p3-68" value="" style="endArrow=none;html=1;rounded=0;exitX=1;exitY=0.5;exitDx=0;exitDy=0;entryX=0;entryY=0.5;entryDx=0;entryDy=0;entryPerimeter=0;fontColor=default;" edge="1" parent="1" source="zLF7GcC5yLLB5WkDSr8T-59" target="PIRXfs8mlD8giTvvL0p3-38">
          <mxGeometry width="50" height="50" relative="1" as="geometry">
            <mxPoint x="570" y="910" as="sourcePoint" />
            <mxPoint x="610" y="910" as="targetPoint" />
          </mxGeometry>
        </mxCell>
      </root>
    </mxGraphModel>
  </diagram>
</mxfile>
